<svg width="440" height="441" viewBox="0 0 440 441" fill="none" xmlns="http://www.w3.org/2000/svg">
<rect width="440" height="440" rx="220" fill="#387CCC"></rect>
<path d="M218.241 31.7999L209.441 103.96H227.921C228.508 103.96 229.095 103.373 228.801 102.787L220.001 31.7999C220.001 30.6266 218.535 30.6266 218.241 31.7999Z" fill="white"></path>
<path d="M193.894 97.2133C195.361 87.8266 190.961 76.3866 183.334 71.1066C178.641 67.88 176.294 63.48 175.414 58.2C174.827 52.6266 177.174 45.5866 174.241 40.3066C175.707 47.0533 171.894 51.4533 170.721 58.2C170.134 61.72 170.721 64.9466 171.601 68.4666C172.481 71.9866 174.827 75.5066 176.587 77.8533C180.401 82.84 180.987 88.4133 178.641 93.4C176.294 98.0933 175.121 106.013 176.294 111.293L194.187 106.6C194.774 106.307 195.067 105.72 194.774 105.133C193.307 102.2 193.307 100.733 193.894 97.2133Z" fill="white"></path>
<path d="M124.962 56.7334C124.376 55.8534 122.909 56.7334 123.202 57.6134L151.656 124.493L167.496 115.4C168.082 115.107 168.082 114.52 167.789 113.933L124.962 56.7334Z" fill="white"></path>
<path d="M131.71 121.267C127.31 114.813 119.683 110.12 112.35 109.533C109.417 109.24 107.363 108.947 105.017 107.48C102.67 106.307 100.617 104.547 98.8565 102.493C95.6298 98.0932 94.1632 90.7599 88.5898 87.5332C93.2832 92.8132 92.1098 98.3865 94.4565 104.84C97.0965 111.293 102.963 116.867 109.417 118.92C114.99 121.267 118.51 125.667 119.097 131.24C119.39 136.52 122.323 143.853 126.137 147.667L139.043 134.76C139.63 134.173 139.337 133.587 138.75 133.293C135.23 130.36 134.937 125.373 131.71 121.267Z" fill="white"></path>
<path d="M120.563 154.12L54.856 126.253C53.6826 125.667 52.8026 127.133 53.9759 128.013L112.056 171.72L121.149 155.88C121.443 155 121.149 154.413 120.563 154.12Z" fill="white"></path>
<path d="M105.602 185.213C102.669 184.92 101.202 184.04 98.269 181.693C90.9356 175.533 78.6156 174.067 70.4023 177.88C65.4156 180.227 60.429 180.227 55.149 178.467C50.1623 176.12 45.1756 170.84 39.0156 170.547C45.7623 172.893 47.5223 178.173 52.8023 182.573C55.7356 184.627 58.669 186.093 62.189 186.973C65.709 188.147 69.8156 187.853 73.0423 187.267C79.2023 186.387 84.189 188.733 87.709 193.133C90.6423 197.827 96.8023 202.227 102.082 203.987L106.776 186.093C106.482 185.8 106.189 185.213 105.602 185.213Z" fill="white"></path>
<path d="M99.7338 212.493L28.7472 221.293C27.5739 221.293 27.5739 223.053 28.7472 223.347L100.907 232.147V213.667C100.907 212.787 100.614 212.493 99.7338 212.493Z" fill="white"></path>
<path d="M262.536 58.2C264.882 53.2133 270.162 48.2266 270.456 42.0667C268.109 48.8133 262.829 50.5733 258.429 55.8533C256.376 58.7867 254.909 61.72 254.029 65.24C252.856 68.76 253.149 72.8666 253.736 76.0933C254.616 82.2533 252.269 87.24 247.869 90.76C243.176 93.6933 238.776 99.8533 237.016 105.133L254.909 109.827C255.496 110.12 256.082 109.533 256.082 108.947C256.376 106.013 257.256 104.547 259.602 101.613C265.762 94.28 267.229 81.96 263.416 73.7466C260.482 68.1733 260.482 63.1866 262.536 58.2Z" fill="white"></path>
<path d="M312.988 56.7334L269.281 114.813L285.121 123.907C285.708 124.2 286.295 123.907 286.588 123.32L314.455 57.6134C315.041 56.7334 313.575 55.8534 312.988 56.7334Z" fill="white"></path>
<path d="M331.469 115.4C331.763 112.467 332.056 110.413 333.523 108.067C334.696 105.72 336.456 103.667 338.509 101.907C342.909 98.6799 350.243 97.2132 353.469 91.6399C348.189 96.3332 342.616 95.1599 336.163 97.5066C329.709 100.147 324.136 106.013 322.083 112.467C319.736 118.04 315.336 121.56 309.763 122.147C304.483 122.44 297.149 125.373 293.336 129.187L306.243 142.093C306.829 142.68 307.416 142.387 307.709 141.8C310.643 137.693 315.629 137.4 319.736 134.467C326.189 130.067 330.883 122.733 331.469 115.4Z" fill="white"></path>
<path d="M325.308 170.547C325.602 171.133 326.188 171.133 326.775 170.84L383.975 128.013C384.855 127.427 383.975 125.96 383.095 126.253L316.215 154.707L325.308 170.547Z" fill="white"></path>
<path d="M372.534 174.067C369.014 174.947 365.494 177.293 363.147 179.053C358.16 182.867 352.587 183.453 347.6 181.107C342.907 178.76 334.987 177.587 329.707 178.76L334.4 196.653C334.694 197.24 335.28 197.533 335.867 197.24C338.8 196.067 340.267 196.067 343.787 196.653C353.174 198.12 364.614 193.72 369.894 186.093C373.12 181.4 377.52 179.053 382.8 178.173C388.374 177.587 395.414 179.933 400.694 177C393.947 178.467 389.547 174.653 382.8 173.48C379.28 172.6 375.76 173.187 372.534 174.067Z" fill="white"></path>
<path d="M337.043 230.68C337.043 231.267 337.63 231.853 338.216 231.56L409.203 222.76C410.376 222.76 410.376 221 409.203 220.707L337.043 211.907V230.68Z" fill="white"></path>
<path d="M386.028 261.773C383.095 259.72 380.161 258.253 376.641 257.373C373.121 256.2 369.015 256.493 365.788 257.08C359.628 257.96 354.641 255.613 351.121 251.213C348.188 246.52 342.028 242.12 336.748 240.36L332.055 258.253C331.761 258.84 332.348 259.427 332.935 259.427C335.868 259.72 337.335 260.6 340.268 262.947C347.601 269.107 359.921 270.573 368.135 266.76C373.121 264.413 378.108 264.413 383.388 266.173C388.375 268.52 393.361 273.8 399.521 274.093C393.068 271.747 391.308 266.173 386.028 261.773Z" fill="white"></path>
<path d="M220.001 15.3733C106.775 15.3733 14.668 107.48 14.668 220.707C14.668 333.933 106.775 426.04 220.001 426.04C333.228 426.04 425.335 333.933 425.335 220.707C425.335 107.48 333.228 15.3733 220.001 15.3733ZM372.828 96.6266C374.001 98.0933 375.175 99.5599 376.348 101.027C388.375 116.867 398.348 134.467 405.388 153.533C413.015 174.653 417.121 197.24 417.121 220.707C417.121 241.24 413.895 260.893 408.028 279.667C369.308 295.213 327.068 300.2 285.708 296.68C305.948 278.493 318.855 252.093 318.855 222.76C318.855 204.867 314.161 188.147 305.655 173.48C290.401 167.32 275.148 165.267 258.721 164.68C239.068 165.56 232.615 185.213 231.735 201.64H230.268C224.988 172.307 240.241 152.067 272.508 152.36C279.548 152.067 287.175 153.827 293.921 156.76C275.735 136.52 249.335 123.613 220.001 123.613C190.081 123.613 163.388 136.813 145.495 157.64C161.335 149.133 184.215 150.893 198.588 160.867C211.201 170.547 212.375 187.853 210.321 201.64H208.855C206.508 166.733 189.495 159.987 156.348 167.32C149.015 168.493 141.681 170.253 134.055 173.773C125.841 188.147 121.148 204.867 121.148 222.76C121.148 234.2 123.201 245.347 126.721 255.613C103.841 251.213 80.3746 249.747 56.6146 253.853C46.9346 255.613 37.2546 258.547 28.1613 262.653C25.228 249.16 23.7613 235.08 23.7613 220.707C23.1746 112.173 111.468 23.88 220.001 23.88C281.015 23.88 335.575 51.7466 371.655 95.4533C371.948 95.7466 372.535 96.3333 372.828 96.6266ZM112.935 385.853C123.201 381.747 134.641 379.693 145.788 379.4C171.015 377.933 197.415 385.853 222.055 390.84C268.695 398.467 318.268 388.493 356.988 362.093C321.495 396.707 273.095 417.827 220.001 417.827C180.695 417.827 143.735 406.093 112.935 385.853ZM301.255 380.573C269.281 386.147 236.721 382.92 206.508 372.36L187.148 366.2C157.521 357.987 119.975 355.347 91.8146 370.013C82.1346 361.507 73.0413 352.413 65.1213 342.147C89.1746 325.427 123.788 325.72 152.535 328.067C175.121 330.12 200.055 336.867 222.348 340.68C280.428 349.48 342.615 341.853 393.948 312.813C385.148 329.24 374.295 343.907 361.681 357.107C343.201 368.84 322.375 376.467 301.255 380.573ZM224.988 327.773C194.188 319.853 162.508 309 130.535 307.24C104.428 305.187 74.2146 307.533 51.0413 321.613C44.588 310.76 39.308 299.32 34.908 287.587C56.3213 272.92 86.2413 272.04 112.055 273.507C147.841 275.56 182.455 288.467 217.361 297.267C279.841 311.933 349.068 309.293 407.441 282.013C404.215 292.28 399.815 302.253 394.828 311.64C342.321 336.867 281.015 340.387 224.988 327.773ZM220.001 252.093C229.388 251.213 238.775 254.147 247.575 250.04C244.935 270.573 195.361 269.987 192.428 250.04C199.175 254.147 212.375 251.8 220.001 252.093ZM201.815 231.853C208.268 231.56 212.375 235.667 218.828 235.08C225.281 235.96 229.388 231.56 235.841 231.853C231.148 236.547 225.868 242.12 218.828 241.533C211.788 242.413 206.508 236.84 201.815 231.853ZM241.708 192.253C244.935 191.373 247.575 191.08 250.215 190.787C258.135 189.907 265.468 190.493 271.921 188.147C279.255 184.92 291.281 181.693 296.855 190.493C292.161 192.547 289.228 194.893 286.588 199C279.548 209.267 262.535 211.907 252.855 205.16C248.161 201.933 244.348 197.827 241.708 192.253ZM188.028 205.16C180.401 210.147 166.615 210.733 158.401 204.573C151.361 199.587 148.721 193.427 140.508 190.493C146.668 181.693 159.281 184.627 166.908 187.853C174.535 190.2 182.748 189.613 191.548 190.493C194.481 190.787 197.121 190.787 200.641 191.96C197.708 197.827 193.308 202.227 188.028 205.16Z" fill="white"></path>
</svg>